<svg xmlns="http://www.w3.org/2000/svg" viewBox="41 309.347 164.286 150">
  <defs>
    <style>
      .cls-1 {
        fill: #333;
      }

      .cls-2 {
        fill: #f7941e;
      }

      .cls-3 {
        fill: #dedfe8;
      }

      .cls-4 {
        fill: #fbfbfd;
      }

      .cls-5 {
        fill: #073443;
      }
    </style>
  </defs>
  <g id="Group_534" data-name="Group 534" transform="translate(-236 211.347)">
    <g id="fuel" transform="translate(277 98)">
      <g id="Group_302" data-name="Group 302" transform="translate(0 0)">
        <path id="Path_768" data-name="Path 768" class="cls-1" d="M55.854,39.142A3.571,3.571,0,0,1,52.3,35.87c-.888-10.55-4.986-17.817-12.526-22.215a3.571,3.571,0,1,1,3.6-6.17c9.563,5.579,14.962,14.927,16.045,27.785a3.572,3.572,0,0,1-3.259,3.859C56.055,39.138,55.954,39.142,55.854,39.142Z" transform="translate(94.142 7.287)"/>
        <path id="Path_769" data-name="Path 769" class="cls-1" d="M52.643,82.714A19.665,19.665,0,0,1,33,63.071v-12.5a3.571,3.571,0,1,1,7.143,0v12.5a12.5,12.5,0,1,0,25,0v-37.5a3.571,3.571,0,1,1,7.143,0v37.5A19.665,19.665,0,0,1,52.643,82.714Z" transform="translate(81.286 45.857)"/>
        <path id="Path_770" data-name="Path 770" class="cls-2" d="M64,14H42.571A3.572,3.572,0,0,0,39,17.571V46.143a3.572,3.572,0,0,0,3.571,3.571H64a3.572,3.572,0,0,0,3.571-3.571V17.571A3.572,3.572,0,0,0,64,14Z" transform="translate(96.714 25.286)"/>
        <path id="Path_771" data-name="Path 771" class="cls-3" d="M94.286,3H22.857A17.878,17.878,0,0,0,5,20.857V149.429A3.572,3.572,0,0,0,8.571,153h100a3.572,3.572,0,0,0,3.571-3.571V20.857A17.878,17.878,0,0,0,94.286,3Z" transform="translate(9.286 -3)"/>
        <path id="Path_772" data-name="Path 772" class="cls-2" d="M133.143,50.143H4.571a3.571,3.571,0,1,1,0-7.143H133.143a3.571,3.571,0,0,1,0,7.143Z" transform="translate(-1 99.857)"/>
        <path id="Path_773" data-name="Path 773" class="cls-1" d="M84,7H12.571A3.572,3.572,0,0,0,9,10.571v50a3.572,3.572,0,0,0,3.571,3.571H84a3.572,3.572,0,0,0,3.571-3.571v-50A3.572,3.572,0,0,0,84,7Z" transform="translate(19.571 7.286)"/>
        <rect id="Rectangle_9" data-name="Rectangle 9" class="cls-4" width="64.286" height="42.857" transform="translate(35.714 21.429)"/>
        <rect id="Rectangle_10" data-name="Rectangle 10" class="cls-2" width="107.143" height="57.143" transform="translate(14.286 85.714)"/>
      </g>
    </g>
    <g id="Group_429" data-name="Group 429" transform="translate(324.917 190.331)">
      <g id="Group_287" data-name="Group 287" transform="translate(0 2.94)">
        <path id="Path_753" data-name="Path 753" class="cls-5" d="M12.308,28.605l-.165.1a.187.187,0,0,1-.165.01l-.361-.175a.173.173,0,0,0-.186.021l-.3.247a.157.157,0,0,1-.165.031l-.381-.134a.178.178,0,0,0-.175.041l-.258.278A.179.179,0,0,1,10,29.08L9.607,29a.174.174,0,0,0-.175.072l-.216.3a.173.173,0,0,1-.155.072l-.4-.021a.159.159,0,0,0-.165.093l-.175.32a.138.138,0,0,1-.134.082l-.4.01a.155.155,0,0,0-.155.113l-.124.33a.168.168,0,0,1-.134.113l-.392.052a.176.176,0,0,0-.144.134l-.072.34a.154.154,0,0,1-.124.124l-.371.1a.162.162,0,0,0-.124.144l-.031.34a.193.193,0,0,1-.1.144L5.659,32a.154.154,0,0,0-.1.165l.021.34a.17.17,0,0,1-.093.155l-.33.175a.153.153,0,0,0-.082.175l.062.33a.152.152,0,0,1-.072.165l-.3.206a.176.176,0,0,0-.062.2l.1.32a.162.162,0,0,1-.052.175l-.258.237a.177.177,0,0,0-.041.2l.144.3a.173.173,0,0,1-.021.186l-.227.268a.171.171,0,0,0-.01.206l.031.052a.183.183,0,0,1-.062.247,2.6,2.6,0,0,0-1.464,2.3v3.154a.174.174,0,0,1-.031.1L.031,45.232a.174.174,0,0,0-.031.1V53.5a.163.163,0,0,0,.165.165H1.01a.163.163,0,0,1,.165.165c0,.722-.01,1.484-.021,2.288-.082,9.1-.021,16.761,1.691,18.348a1.253,1.253,0,0,0,.866.361,2.112,2.112,0,0,0,1.515-.536c1.082-1.021,1.041-3.35.979-7.6-.021-1.165-.041-2.474-.041-3.917,0-3.536.278-5.742.856-6.762.4-.711.856-.773,1.629-.763a.177.177,0,0,0,.175-.155l.031-.268V54.8l-.031-.268a.176.176,0,0,0-.165-.155A2.454,2.454,0,0,0,6.185,55.6c-.67,1.185-.969,3.391-.969,7.174,0,1.453.021,2.763.041,3.938.062,3.742.1,6.216-.7,6.968a1.15,1.15,0,0,1-.835.278c-.021,0-.082,0-.2-.1C1.959,72.414,2.062,62.23,2.113,56.138c.01-.8.01-1.577.021-2.3a.163.163,0,0,1,.165-.165H7.04v-.021h.237a.163.163,0,0,0,.165-.165V35.924a.163.163,0,0,0-.165-.165H6.051a.165.165,0,0,1-.124-.278h0a.173.173,0,0,0,.021-.186l-.1-.216a.158.158,0,0,1,.041-.2l.186-.175a.162.162,0,0,0,.052-.175l-.072-.227a.182.182,0,0,1,.062-.2l.216-.155A.178.178,0,0,0,6.4,33.79l-.041-.237a.166.166,0,0,1,.082-.175l.237-.124a.17.17,0,0,0,.093-.155l-.01-.237a.184.184,0,0,1,.1-.165l.258-.1a.155.155,0,0,0,.1-.144l.021-.247a.154.154,0,0,1,.124-.144l.258-.082a.186.186,0,0,0,.124-.124l.052-.247a.176.176,0,0,1,.144-.134l.289-.041a.168.168,0,0,0,.134-.113l.093-.247a.168.168,0,0,1,.155-.113l.3-.01a.155.155,0,0,0,.144-.093l.124-.237a.175.175,0,0,1,.165-.093l.3.031a.162.162,0,0,0,.155-.072l.155-.227a.186.186,0,0,1,.175-.072l.289.062a.17.17,0,0,0,.155-.052l.2-.206a.158.158,0,0,1,.175-.041l.289.093a.165.165,0,0,0,.165-.031l.216-.186A.173.173,0,0,1,11.8,29.8l.268.124a.187.187,0,0,0,.165-.01l.258-.165a.138.138,0,0,0,.072-.144v-.9A.169.169,0,0,0,12.308,28.605ZM4.814,52.355H1.587a.163.163,0,0,1-.165-.165V45.758a.174.174,0,0,1,.031-.1l1.082-1.4a.166.166,0,0,1,.3.1v4.02A.163.163,0,0,0,3,48.541H4.793a.163.163,0,0,1,.165.165V52.18A.141.141,0,0,1,4.814,52.355Z" transform="translate(0 -28.526)"/>
      </g>
      <path id="Path_754" data-name="Path 754" class="cls-5" d="M116.834,1.3V21.564a1.351,1.351,0,0,1-1.4,1.3H93.487a1.351,1.351,0,0,0-1.4,1.3V38.717a1.351,1.351,0,0,0,1.4,1.3h15.751a1.351,1.351,0,0,0,1.4-1.3V35.6a1.351,1.351,0,0,1,1.4-1.3h3.371a1.351,1.351,0,0,1,1.4,1.3V50.159a1.351,1.351,0,0,1-1.4,1.3H87.3a1.351,1.351,0,0,1-1.4-1.3V18.451a1.351,1.351,0,0,1,1.4-1.3h21.946a1.351,1.351,0,0,0,1.4-1.3V7.02a1.351,1.351,0,0,0-1.4-1.3H93.487a1.351,1.351,0,0,0-1.4,1.3v3.113a1.351,1.351,0,0,1-1.4,1.3H87.3a1.351,1.351,0,0,1-1.4-1.3V1.3A1.351,1.351,0,0,1,87.3,0h28.13A1.351,1.351,0,0,1,116.834,1.3Z" transform="translate(-77.045 0)"/>
      <path id="Path_755" data-name="Path 755" class="cls-2" d="M198,273.608A3.919,3.919,0,1,0,201.907,270,3.764,3.764,0,0,0,198,273.608Z" transform="translate(-177.59 -242.168)"/>
      <path id="Path_756" data-name="Path 756" class="cls-5" d="M215.7,281.639a2.088,2.088,0,0,0,4.165,0c0-1.062-2.082-3.639-2.082-3.639S215.7,280.577,215.7,281.639Z" transform="translate(-193.466 -249.344)"/>
    </g>
  </g>
</svg>
